dual audio eng/french


Meet Dora's cousin, Diego! He helps at the Animal Rescue Center and can even talk to animals! In these two wild episodes of Dora the Explorer, Dora, Boots and Diego will need to run, jump, swing and even fly to the rescue of animals and catch stars for Dora's Star Pocket! There's only one explorer who can help them... you!


Format                           : MPEG-4
Format profile                   : Base Media / Version 2
Codec ID                         : mp42
File size                        : 800 MiB
Duration                         : 1h 34mn
Overall bit rate                 : 1 186 Kbps
Encoded date                     : UTC 2010-01-23 08:32:17
Tagged date                      : UTC 2010-01-23 18:09:54
Writing application              : HandBrake 0.9.3 2008112300

Video
ID                               : 1
Format                           : AVC
Format/Info                      : Advanced Video Codec
Format profile                   : Main@L4.0
Format settings, CABAC           : Yes
Format settings, ReFrames        : 3 frames
Codec ID                         : avc1
Codec ID/Info                    : Advanced Video Coding
Duration                         : 1h 34mn
Bit rate mode                    : Variable
Bit rate                         : 861 Kbps
Width                            : 702 pixels
Height                           : 572 pixels
Display aspect ratio             : 4:3
Frame rate mode                  : Variable
Frame rate                       : 25.000 fps
Minimum frame rate               : 12.500 fps
Maximum frame rate               : 36.309 fps
Resolution                       : 24 bits
Colorimetry                      : 4:2:0
Scan type                        : Progressive
Bits/(Pixel*Frame)               : 0.086
Stream size                      : 580 MiB (73%)
Writing library                  : x264 core 65


Audio #1
ID                               : 2
Format                           : AAC
Format/Info                      : Advanced Audio Codec
Format version                   : Version 4
Format profile                   : LC
Format settings, SBR             : No
Codec ID                         : 40
Duration                         : 1h 34mn
Bit rate mode                    : Variable
Bit rate                         : 160 Kbps
Maximum bit rate                 : 250 Kbps
Channel(s)                       : 2 channels
Channel positions                : L R
Sampling rate                    : 48.0 KHz
Resolution                       : 16 bits
Stream size                      : 108 MiB (13%)
Language                         : English
Encoded date                     : UTC 2010-01-23 08:32:17
Tagged date                      : UTC 2010-01-23 18:09:38

Audio #2
ID                               : 3
Format                           : AAC
Format/Info                      : Advanced Audio Codec
Format version                   : Version 4
Format profile                   : LC
Format settings, SBR             : No
Codec ID                         : 40
Duration                         : 1h 34mn
Bit rate mode                    : Variable
Bit rate                         : 160 Kbps
Maximum bit rate                 : 231 Kbps
Channel(s)                       : 2 channels
Channel positions                : L R
Sampling rate                    : 48.0 KHz
Resolution                       : 16 bits
Stream size                      : 108 MiB (13%)
Language                         : French
Encoded date                     : UTC 2010-01-23 08:32:17
Tagged date                      : UTC 2010-01-23 18:09:38

